#!OML:ASF E:\emotionWalksFemale\Project 1\Capture day 1\Session 1\Female1.ASF
:FULLY-SPECIFIED
:DEGREES
415
root 8.43825 13.4263 21.9006 -147.721 -6.77567 -182.632
lowerback 45.8198 1.75289 2.0282
upperback 6.13652 0.877485 0.705712
thorax -14.3551 -0.631348 -0.453406
lowerneck -10.9834 -3.56406 -5.11917
upperneck -14.5374 -5.30549 6.10806
head -2.53692 -3.25296 2.85251
rclavicle -6.36111e-015 4.77083e-015
rhumerus 5.49401 -0.478717 -70.122
rradius 22.8172
rwrist 41.3519
rhand 7.34392 -57.2473
rfingers 7.12502
rthumb 32.603 -84.3305
lclavicle -6.36111e-015 4.77083e-015
lhumerus 8.34018 10.0913 80.6985
lradius 26.3644
lwrist -23.6502
lhand -6.92815 -46.9662
lfingers 7.12502
lthumb 18.9399 -17.8683
rfemur -67.1725 -2.7086 28.7754
rtibia 79.8938
rfoot -31.3548 -23.1986
rtoes 2.99641
lfemur -71.1017 2.12924 -26.3837
ltibia 77.4274
lfoot -29.8538 -6.03796
ltoes -3.35137
416
root 8.45718 13.4798 21.8875 -149.141 -7.1701 -182.87
lowerback 44.7274 1.70091 2.03022
upperback 6.39727 0.790106 0.744729
thorax -13.7334 -0.663066 -0.376919
lowerneck -11.2837 -3.40591 -5.33107
upperneck -14.9535 -5.16777 5.90206
head -2.64234 -3.20935 2.8324
rclavicle 3.97569e-014 5.96354e-015
rhumerus 11.019 -0.285067 -69.6183
rradius 22.9886
rwrist 39.7058
rhand 6.28275 -57.2072
rfingers 7.12502
rthumb 31.5927 -84.494
lclavicle 3.97569e-014 5.96354e-015
lhumerus 14.1371 9.92443 81.4574
lradius 26.1609
lwrist -23.0715
lhand -8.50969 -47.8249
lfingers 7.12502
lthumb 17.4184 -18.5853
rfemur -65.2251 -2.92315 28.3364
rtibia 79.4235
rfoot -30.6547 -23.4324
rtoes 1.30903
lfemur -69.3051 1.74892 -26.1525
ltibia 77.0413
lfoot -29.0165 -6.10985
ltoes -3.50001
417
root 8.47786 13.5315 21.8762 -150.52 -7.45466 -183.017
lowerback 43.8323 1.69374 2.07854
upperback 6.54803 0.791669 0.708834
thorax -13.2893 -0.654875 -0.448902
lowerneck -11.3419 -3.18079 -5.02267
upperneck -15.3942 -5.02533 5.2035
head -2.81895 -3.17199 2.55916
rclavicle -1.82882e-014 -1.82882e-014
rhumerus 16.5026 -1.19593 -69.4574
rradius 23.2689
rwrist 40.502
rhand 7.96922 -57.6292
rfingers 7.12502
rthumb 33.1978 -84.5875
lclavicle -1.82882e-014 -1.82882e-014
lhumerus 19.5221 9.44885 82.1162
lradius 26.4714
lwrist -21.4122
lhand -8.06047 -47.3467
lfingers 7.12502
lthumb 17.8507 -18.146
rfemur -63.3396 -2.90039 27.9107
rtibia 78.9565
rfoot -29.8002 -23.7601
rtoes -0.392479
lfemur -67.5619 1.52368 -25.9123
ltibia 76.6473
lfoot -28.0343 -6.63088
ltoes -1.02031
418
root 8.50658 13.579 21.8551 -152.063 -7.69596 -182.958
lowerback 43.2915 1.92873 1.99282
upperback 6.52198 1.0909 0.838742
thorax -13.1562 -0.510399 -0.404735
lowerneck -11.887 -3.00204 -4.76933
upperneck -15.4012 -4.92211 4.40921
head -2.76078 -3.13488 2.23436
rclavicle 2.38542e-014 -7.55382e-015
rhumerus 21.967 -2.80979 -69.6012
rradius 22.9405
rwrist 41.2887
rhand 7.02476 -58.3461
rfingers 7.12502
rthumb 32.2993 -85.4915
lclavicle 2.38542e-014 -7.55382e-015
lhumerus 24.5472 8.50465 82.7584
lradius 26.7606
lwrist -19.8459
lhand -8.52956 -47.263
lfingers 7.12502
lthumb 17.3992 -18.0217
rfemur -61.2212 -2.65594 27.7115
rtibia 78.4427
rfoot -29.0281 -24.1757
rtoes -2.10627
lfemur -65.6544 1.45495 -25.4771
ltibia 76.2344
lfoot -27.0819 -6.56998
ltoes -1.17529
419
root 8.52234 13.6358 21.829 -153.521 -7.71492 -183.159
lowerback 43.0177 2.20631 2.07212
upperback 6.27642 1.51881 0.551599
thorax -13.3416 -0.300193 -0.963243
lowerneck -11.0489 -2.95319 -4.05583
upperneck -16.063 -5.01568 3.82357
head -3.1558 -3.21157 1.96012
rclavicle 1.03368e-014 -1.74931e-014
rhumerus 26.5033 -3.67477 -69.2636
rradius 23.0689
rwrist 39.2573
rhand 4.13608 -58.4499
rfingers 7.12502
rthumb 29.5456 -86.1185
lclavicle 1.03368e-014 -1.74931e-014
lhumerus 29.5533 6.70265 83.0523
lradius 26.8939
lwrist -18.1961
lhand -8.41396 -47.6912
lfingers 7.12502
lthumb 17.5105 -18.4599
rfemur -59.1317 -2.65111 27.1565
rtibia 77.9275
rfoot -28.4722 -23.9592
rtoes -2.66466
lfemur -63.5726 1.20026 -25.4181
ltibia 75.6867
lfoot -26.2263 -6.14836
ltoes -0.726872
420
root 8.54422 13.7015 21.7937 -155.038 -7.85665 -183.379
lowerback 42.8193 2.49083 2.3995
upperback 6.12288 2.01197 0.0689987
thorax -13.4159 -0.0779828 -1.89394
lowerneck -10.8124 -2.95381 -2.6274
upperneck -16.4643 -5.25132 2.92247
head -3.38045 -3.38894 1.43495
rclavicle 8.74653e-015 9.54166e-015
rhumerus 30.8301 -5.39779 -69.3225
rradius 23.6947
rwrist 37.6659
rhand 6.0428 -59.1384
rfingers 7.12502
rthumb 31.3641 -86.4699
lclavicle 8.74653e-015 9.54166e-015
lhumerus 30.4287 3.56245 81.8914
lradius 31.0857
lwrist -15.1065
lhand -9.08246 -48.2458
lfingers 7.12502
lthumb 16.8671 -18.9583
rfemur -56.845 -2.66199 26.6733
rtibia 77.3204
rfoot -27.984 -23.6805
rtoes -3.38374
lfemur -61.2855 0.967542 -25.3064
ltibia 75.0285
lfoot -25.4339 -6.03967
ltoes 0.305218
421
root 8.56622 13.7797 21.7492 -156.529 -8.20924 -183.691
lowerback 42.4251 2.65712 2.7071
upperback 5.93965 2.34584 -0.545955
thorax -13.4565 0.0842807 -2.88752
lowerneck -10.2904 -2.75714 -0.32639
upperneck -16.8723 -5.30497 1.59228
head -3.70679 -3.4995 0.638641
rclavicle 2.70347e-014 -1.35174e-014
rhumerus 34.711 -7.2309 -69.8369
rradius 24.4807
rwrist 37.2734
rhand 6.24274 -57.4348
rfingers 7.12502
rthumb 31.5546 -84.729
lclavicle 2.70347e-014 -1.35174e-014
lhumerus 34.0079 0.240986 79.5465
lradius 32.6727
lwrist -11.8897
lhand -8.62393 -47.4299
lfingers 7.12502
lthumb 17.3084 -18.1806
rfemur -54.4693 -2.90087 26.214
rtibia 76.6181
rfoot -27.5699 -23.4635
rtoes -3.95442
lfemur -58.9485 0.493204 -25.2391
ltibia 74.2471
lfoot -24.7079 -5.72204
ltoes -0.262678
422
root 8.58383 13.8509 21.6999 -157.751 -8.43884 -183.977
lowerback 41.4851 2.51734 1.44715
upperback 5.89161 1.78528 0.363386
thorax -13.3201 -0.0921268 -0.975359
lowerneck -10.2723 -1.8998 -2.49061
upperneck -16.9527 -4.09932 1.27083
head -3.72205 -2.79218 0.904507
rclavicle -3.65764e-014 3.18055e-014
rhumerus 40.3145 -3.87235 -67.8578
rradius 25.232
rwrist 34.7766
rhand 4.8518 -59.9677
rfingers 7.12502
rthumb 30.2286 -87.5133
lclavicle -3.65764e-014 3.18055e-014
lhumerus 39.5965 1.66683 78.4526
lradius 31.4431
lwrist -9.77038
lhand -10.4048 -49.2068
lfingers 7.12502
lthumb 15.5938 -19.8154
rfemur -52.3958 -3.04259 25.7864
rtibia 75.8822
rfoot -26.8971 -23.5564
rtoes -4.41844
lfemur -56.993 0.00555973 -25.2449
ltibia 73.5017
lfoot -23.8797 -5.31755
ltoes 0.118549
423
root 8.60044 13.8982 21.644 -158.722 -8.49813 -184.061
lowerback 40.6694 2.65477 1.17332
upperback 5.81009 1.96206 0.757671
thorax -13.1689 0.0243001 -0.481697
lowerneck -11.5754 -1.66525 -3.78393
upperneck -16.3377 -3.73246 0.879104
head -3.27925 -2.55069 0.954977
rclavicle 7.95139e-015 1.35174e-014
rhumerus 45.4365 -2.89698 -65.7301
rradius 25.8004
rwrist 31.3657
rhand 5.2105 -58.8959
rfingers 7.12502
rthumb 30.5707 -86.3783
lclavicle 7.95139e-015 1.35174e-014
lhumerus 49.4727 1.24251 77.3299
lradius 26.8225
lwrist -7.4591
lhand -10.0371 -48.3967
lfingers 7.12502
lthumb 15.9479 -19.0333
rfemur -50.71 -2.81761 25.538
rtibia 75.184
rfoot -25.9301 -23.8184
rtoes -5.507
lfemur -55.4198 -0.248185 -25.151
ltibia 72.8611
lfoot -22.9586 -4.92696
ltoes 0.791977
424
root 8.61492 13.956 21.5758 -159.687 -8.59449 -184.123
lowerback 39.6241 2.92699 1.1467
upperback 5.95877 2.34633 0.963221
thorax -12.6491 0.216265 -0.406958
lowerneck -12.5855 -1.46387 -4.18683
upperneck -16.1571 -3.51806 0.287447
head -3.06132 -2.44382 0.809372
rclavicle 2.62396e-014 -2.14687e-014
rhumerus 50.4361 -3.4398 -64.1464
rradius 26.4799
rwrist 29.6929
rhand 5.6661 -58.5392
rfingers 7.12502
rthumb 31.0051 -85.9397
lclavicle 2.62396e-014 -2.14687e-014
lhumerus 53.0638 0.278202 75.3988
lradius 28.4773
lwrist -5.09098
lhand -9.10047 -47.3253
lfingers 7.12502
lthumb 16.8497 -18.0364
rfemur -48.9418 -2.67605 25.3096
rtibia 74.4223
rfoot -25.0304 -23.6764
rtoes -6.03208
lfemur -53.6913 -0.523672 -25.0546
ltibia 72.1275
lfoot -22.1505 -4.43336
ltoes 0.115497
425
root 8.62447 14.0383 21.4924 -160.905 -8.99511 -184.277
lowerback 39.4872 2.86367 1.60553
upperback 5.55081 2.56802 0.853598
thorax -13.0445 0.333145 -0.873607
lowerneck -12.2833 -1.26242 -4.11032
upperneck -16.1705 -3.29879 -0.279975
head -3.1316 -2.30633 0.619512
rclavicle -1.74931e-014 3.02153e-014
rhumerus 54.1546 -3.91574 -62.4987
rradius 27.4706
rwrist 28.1286
rhand 4.93049 -58.9308
rfingers 7.12502
rthumb 30.3037 -86.4626
lclavicle -1.74931e-014 3.02153e-014
lhumerus 58.893 -0.770146 71.7925
lradius 27.4015
lwrist -2.455
lhand -9.00111 -46.9279
lfingers 7.12502
lthumb 16.9454 -17.6471
rfemur -46.6703 -2.99034 25.0889
rtibia 73.4766
rfoot -24.1684 -23.5431
rtoes -6.91432
lfemur -51.4503 -1.13139 -24.9619
ltibia 71.179
lfoot -21.3641 -4.02012
ltoes -1.02818
426
root 8.62772 14.1226 21.3955 -162.143 -9.6071 -184.501
lowerback 39.0161 2.81925 1.98717
upperback 5.54558 2.71805 0.974581
thorax -12.8698 0.402435 -1.00386
lowerneck -12.3693 -0.99624 -4.30121
upperneck -16.3635 -3.04803 -1.02496
head -3.20393 -2.16868 0.414345
rclavicle -2.06736e-014 -2.38542e-015
rhumerus 58.3231 -4.48636 -60.0234
rradius 28.2963
rwrist 26.211
rhand 6.99963 -59.9413
rfingers 7.12502
rthumb 32.2753 -87.0916
lclavicle -2.06736e-014 -2.38542e-015
lhumerus 61.9842 -0.837863 70.0165
lradius 29.2211
lwrist -0.982127
lhand -8.37216 -46.1702
lfingers 7.12502
lthumb 17.5507 -16.9424
rfemur -44.2366 -3.61659 24.8865
rtibia 72.3969
rfoot -23.4281 -23.4815
rtoes -8.02633
lfemur -49.1234 -1.9263 -24.9232
ltibia 70.1098
lfoot -20.1951 -3.887
ltoes 0.109478
427
root 8.63063 14.2128 21.2831 -163.124 -10.0518 -184.684
lowerback 38.073 2.90162 2.08454
upperback 5.6612 2.91067 1.21649
thorax -12.4065 0.510382 -0.863327
lowerneck -12.5455 -0.640223 -4.81125
upperneck -16.6127 -2.64047 -1.57563
head -3.27872 -1.94695 0.326774
rclavicle 2.06736e-014 9.54166e-015
rhumerus 62.8159 -5.23063 -57.4137
rradius 28.9564
rwrist 23.8566
rhand 7.47902 -60.5086
rfingers 7.12502
rthumb 32.7315 -87.5651
lclavicle 2.06736e-014 9.54166e-015
lhumerus 65.4543 -0.364126 68.3283
lradius 30.347
lwrist 0.452199
lhand -8.80497 -47.3422
lfingers 7.12502
lthumb 17.1342 -18.0777
rfemur -41.966 -4.11994 24.6966
rtibia 71.1502
rfoot -22.8319 -23.1954
rtoes -7.6224
lfemur -46.9911 -2.52878 -24.9238
ltibia 68.9414
lfoot -19.4937 -3.55059
ltoes -2.31519
428
root 8.63218 14.3122 21.1599 -163.94 -10.4622 -184.852
lowerback 37.2911 3.02298 2.24378
upperback 5.36379 3.23615 1.0897
thorax -12.4419 0.700576 -1.22285
lowerneck -11.8422 -0.228783 -3.95293
upperneck -16.9065 -2.25796 -2.3614
head -3.52017 -1.75232 -0.061931
rclavicle 3.18055e-014 -4.6118e-014
rhumerus 66.2606 -6.58036 -56.2554
rradius 29.27
rwrist 23.0581
rhand 6.52569 -58.5524
rfingers 7.12502
rthumb 31.8241 -85.7934
lclavicle 3.18055e-014 -4.6118e-014
lhumerus 69.8244 -0.505938 67.0703
lradius 30.5507
lwrist 1.51244
lhand -9.00447 -48.485
lfingers 7.12502
lthumb 16.9421 -19.2039
rfemur -39.8401 -4.6311 24.5404
rtibia 69.7599
rfoot -21.8658 -23.0628
rtoes -7.46378
lfemur -44.9201 -3.08824 -24.946
ltibia 67.6611
lfoot -18.4702 -3.04163
ltoes -5.33233
